<svg xmlns="http://www.w3.org/2000/svg" aria-hidden="true" style="position:absolute;width:0;height:0;overflow:hidden"><defs><symbol id="icon-adults" viewBox="0 0 32 32"><path d="M20.8 5.259c-1.059.192-1.898.565-2.68 1.187-2.248 1.792-3.002 4.936-1.829 7.643.222.512.698 1.248 1.045 1.614l.264.28-.547.322a10.329 10.329 0 0 0-3.742 3.766l-.026.05c-.235.414-.794 1.701-.898 2.066-.11.392-.106 1.208.01 1.65.197.739.61 1.445 1.125 1.915.334.307 1.09.698 1.571.816.238.058 1.467.072 6.427.072h6.133l.4-.125c1.139-.355 1.963-1.066 2.458-2.115.264-.562.336-.957.304-1.666v-.01c0-.396-.083-.773-.233-1.115l.007.018c-.869-2.317-2.331-4.077-4.395-5.293a24.008 24.008 0 0 1-.732-.429l.198.112c-.011-.008.077-.122.195-.251.768-.834 1.285-1.882 1.514-3.074.098-.515.083-2.013-.027-2.514-.517-2.362-2.112-4.141-4.274-4.771-.408-.118-.605-.142-1.307-.157a9.565 9.565 0 0 0-.987.009l.027-.001zm1.586 2.901c1.781.621 2.731 2.816 2.051 4.738-.467 1.32-1.531 2.194-2.784 2.286-.52.038-.914-.046-1.446-.314a3.809 3.809 0 0 1-1.367-1.278l-.009-.015c-1.259-2.118-.274-4.867 1.97-5.496.402-.112 1.146-.075 1.586.078zm-14.359.885c-1.821.4-3.333 1.907-3.85 3.837-.126.472-.142.629-.142 1.386 0 .702.019.925.114 1.264.226.824.589 1.582 1.005 2.102l.176.219-.552.355a8.433 8.433 0 0 0-3.028 3.42l-.022.05c-.478 1.008-.514 1.957-.112 2.946.301.739 1.01 1.512 1.702 1.854.667.328.973.357 3.709.338 2.618-.018 2.611-.016 2.965-.352.282-.267.379-.526.379-.997 0-.49-.11-.763-.41-1.016-.349-.293-.326-.291-2.922-.291-2.658 0-2.618.005-2.922-.341-.214-.245-.218-.387-.016-.875a5.28 5.28 0 0 1 2.654-2.825l.032-.014c.632-.301 1.165-.422 2.091-.482 1.24-.077 1.92-.264 2.752-.755.456-.269 1.272-1.048 1.579-1.509 1.454-2.174 1.142-5.027-.758-6.933a5.096 5.096 0 0 0-2.097-1.299l-.036-.01c-.496-.158-1.731-.198-2.293-.074zm1.514 2.745c.661.152 1.333.698 1.645 1.334.946 1.926-.685 4.109-2.682 3.594-1.49-.386-2.261-2.179-1.563-3.638.458-.963 1.589-1.523 2.6-1.29zm13.181 6.052c1.346.219 2.664.923 3.733 1.995a6.984 6.984 0 0 1 1.437 2.034c.301.626.336.898.181 1.357-.12.35-.554.795-.856.875-.158.043-1.845.056-5.84.045-5.549-.014-5.618-.014-5.802-.123-.358-.21-.693-.896-.619-1.27.09-.45.632-1.509 1.088-2.126a7.474 7.474 0 0 1 3.019-2.37l.048-.018a6.263 6.263 0 0 1 2.473-.499c.402 0 .796.037 1.178.109l-.039-.006z"/></symbol><symbol id="icon-automatic" viewBox="0 0 32 32"><path d="M5.666 2.934c-1.301.341-2.4 1.448-2.734 2.752a4.547 4.547 0 0 0 .006 1.992l-.006-.03A3.88 3.88 0 0 0 5 10.14l.023.01.462.222.018 1.818.018 1.816.2.405a2.6 2.6 0 0 0 1.203 1.202l.405.2 3.472.054.027 4.402.026 4.403.2.405c.264.533.67.939 1.203 1.203l.405.2 2.43.016c1.664.011 2.493-.002 2.63-.042.451-.133.782-.6.784-1.109a1.142 1.142 0 0 0-.659-1.082l-.007-.003c-.197-.091-.384-.099-2.357-.099-1.878-.002-2.152-.011-2.226-.086-.077-.075-.083-.506-.072-4.146l.014-4.062 2.267-.027c2.478-.029 2.413-.021 2.73-.355.429-.451.408-1.259-.043-1.682-.346-.325-.101-.31-5.349-.31-4.29 0-4.806-.008-4.882-.083-.072-.072-.083-.288-.082-1.56l.002-1.477.466-.222a3.87 3.87 0 0 0 2.087-2.475l.006-.027a4.547 4.547 0 0 0-.006-1.992l.006.03a3.935 3.935 0 0 0-2.726-2.749l-.028-.007a4.719 4.719 0 0 0-2.014.009l.031-.006zm1.531 2.384c.531.189.92.762.92 1.35v.013c0 .786-.638 1.424-1.424 1.424h-.027.001c-1 0-1.678-.934-1.384-1.909.085-.283.419-.672.702-.816.406-.208.754-.226 1.211-.062zM22.16 9.595a1.34 1.34 0 0 0-.357.251c-.318.341-.31.216-.309 4.165.002 3.405.006 3.627.101 3.829.4.867 1.662.899 2.13.053.069-.125.094-.36.115-1.093l.027-.933.773-.032c1.122-.046 1.589-.24 2.294-.95.438-.443.742-.974.848-1.488a4.92 4.92 0 0 0-.005-1.488l.004.027c-.226-1.093-1.291-2.158-2.384-2.384-.163-.034-.861-.058-1.653-.058-1.221.002-1.394.013-1.584.101zm2.915 2.394a.8.8 0 0 1-.001 1.357l-.003.002c-.152.094-.269.114-.693.117l-.51.003-.016-.744a6.666 6.666 0 0 1 .016-.845l-.002.024c.048-.125.976-.058 1.21.086zm-2.915 9.606a1.34 1.34 0 0 0-.357.251c-.315.336-.31.282-.309 3.499.002 2.755.008 2.962.101 3.162.124.263.335.468.596.581l.008.003c.318.133 2.234.117 2.782-.022a3.931 3.931 0 0 0 2.747-2.728l.007-.028c.144-.558.144-1.403 0-1.962a3.928 3.928 0 0 0-2.726-2.747l-.027-.007c-.346-.088-.589-.106-1.509-.104-.955.002-1.126.014-1.312.101zm2.427 2.415c.517.221.864.754.864 1.326 0 .752-.594 1.389-1.344 1.446l-.24.018-.014-1.413a23.29 23.29 0 0 1 .013-1.525l-.002.045c.035-.09.395-.038.723.102z"/></symbol><symbol id="icon-bathroom" viewBox="0 0 32 32"><path d="M3.855 6.77a.79.79 0 0 0-.534.39c-.085.156-.096.384-.11 2.319l-.016 2.147H.516l-.184.14c-.25.191-.333.417-.333.912 0 .536.13 1.639.266 2.268.792 3.638 3.213 6.776 6.478 8.398.28.139.507.265.506.281s-.103.077-.227.136c-.167.08-.256.172-.349.358-.224.449-.04.898.445 1.083.288.11.335.097 1.619-.445l.873-.368.528.097c1.067.195 1.742.216 6.313.194 4.724-.023 4.774-.025 5.973-.305l.427-.1 1.122.469c.617.258 1.196.485 1.286.505.214.047.566-.094.734-.293.2-.237.227-.535.076-.833-.129-.255-.254-.346-.763-.554l-.265-.109.505-.267c2.375-1.254 4.418-3.492 5.462-5.984.613-1.463.989-3.188.989-4.531 0-.494-.083-.721-.333-.911l-.184-.14L4.823 11.6l-.014-1.64-.014-1.64h2.501l.017.876c.019.971.042 1.042.416 1.297.33.225.814.11 1.055-.251.122-.183.123-.197.108-1.6-.023-2.054.207-1.892-2.709-1.905-1.188-.005-2.237.01-2.332.033zm26.491 6.603c-.001.588-.313 1.948-.649 2.822-1.465 3.814-4.892 6.421-8.996 6.841-.742.076-8.66.076-9.402 0a10.883 10.883 0 0 1-2.392-.511 10.701 10.701 0 0 1-7.171-8.445 6.475 6.475 0 0 1-.082-.707v-.2h28.693v.2z"/></symbol><symbol id="icon-beds" viewBox="0 0 32 32"><path d="M7.526 5.016c-1.166.306-2.214 1.36-2.514 2.531-.101.394-.106.592-.106 3.605v3.189l-.278.141c-.997.499-1.885 1.477-2.35 2.586-.381.906-.374.811-.397 5.17-.024 4.333-.035 4.171.317 4.531.243.25.445.336.784.339l.036.001c.295 0 .563-.115.762-.302l-.001.001c.222-.202.293-.41.328-.96.029-.464.048-.539.155-.627.118-.096.486-.099 11.738-.099s11.619.003 11.738.099c.107.088.126.163.155.627.035.55.106.758.328.96.227.206.485.304.797.301l.046.001a.967.967 0 0 0 .737-.339l.001-.001c.352-.36.341-.2.317-4.533-.024-4.355-.018-4.266-.397-5.168-.466-1.109-1.354-2.086-2.35-2.586l-.278-.141v-3.189c0-3.013-.005-3.211-.106-3.605-.302-1.182-1.352-2.232-2.534-2.534-.408-.104-.59-.106-8.475-.102-7.789.002-8.07.005-8.451.106zm16.54 2.229c.299.147.654.531.742.802.074.226.133 3.443.062 3.413a32.968 32.968 0 0 1-1.172-.545l.674.303a3.293 3.293 0 0 0-.78-.274l-.023-.004c-.557-.093-5.792-.078-6.243.018a3.365 3.365 0 0 0-1.134.503l.011-.007-.202.133-.254-.163a3.157 3.157 0 0 0-1.167-.483l-.02-.003c-.478-.077-5.666-.075-6.13.003a3.473 3.473 0 0 0-.823.287l.02-.009-.494.24c-.059.027-.048-2.867.014-3.197.111-.53.505-.947 1.014-1.089l.01-.002c.226-.054 1.835-.066 7.962-.059l7.68.01.253.125zm-9.693 5.974c.248.114.315.184.427.451l.082.197H8.109l.056-.147c.106-.228.28-.41.496-.522l.006-.003c.126-.056.715-.072 2.826-.072 2.467 0 2.683.006 2.88.096zm8.949-.025c.228.111.408.295.511.52l.003.007.056.147h-6.773l.082-.197c.112-.267.179-.338.427-.451.197-.09.416-.098 2.867-.098 2.139-.002 2.69.013 2.827.072zm2.201 2.971c.702.126 1.499.666 1.893 1.28.096.149.235.43.31.626l.139.357.016 2.226.018 2.227H4.107v-2.043c0-1.227.022-2.17.058-2.36.205-1.133 1.238-2.139 2.395-2.333.074-.013 4.299-.026 9.39-.03 6.403-.005 9.354.011 9.573.051z"/></symbol><symbol id="icon-calendar" viewBox="0 0 32 32"><path d="M10.187 1.578c-.13.061-.242.137-.34.227l.001-.001c-.299.285-.326.389-.355 1.397l-.026.933-1.814.03c-2 .032-2.054.04-2.752.405a3.939 3.939 0 0 0-1.963 2.428l-.006.028c-.106.408-.107.594-.106 10.315.002 9.67.003 9.907.106 10.309.338 1.314 1.44 2.418 2.755 2.754.402.102.632.106 10.314.106s9.912-.003 10.314-.106c1.315-.336 2.418-1.44 2.755-2.754.102-.402.104-.638.106-10.309.002-9.722 0-9.907-.106-10.315a3.942 3.942 0 0 0-1.948-2.446l-.021-.01c-.698-.365-.752-.373-2.752-.405l-1.814-.03-.026-.933c-.029-1.008-.056-1.112-.355-1.397a1.228 1.228 0 0 0-1.638.001l.001-.001c-.301.285-.326.389-.355 1.397l-.027.933h-8.266l-.027-.933c-.029-1.008-.054-1.112-.355-1.397a1.282 1.282 0 0 0-1.306-.223l.009-.003zm-.694 5.889c.029 1.008.056 1.112.355 1.397.55.523 1.504.368 1.877-.304.069-.126.094-.36.115-1.093l.027-.934h8.266l.027.934c.029 1.008.054 1.112.355 1.397a1.228 1.228 0 0 0 1.638-.001l-.001.001c.299-.285.326-.389.355-1.397l.026-.934h1.547c1.51.002 1.554.003 1.826.126.342.155.658.488.792.837.094.245.102.427.102 2.451v2.186H5.2v-2.16c0-2.459.008-2.514.381-2.93.438-.488.632-.528 2.472-.518l1.414.008.026.934zM26.8 20.72c0 5.957-.003 6.197-.102 6.45-.155.37-.433.664-.782.834l-.009.004-.278.125h-9.6c-9.315 0-9.608-.003-9.864-.101a1.623 1.623 0 0 1-.833-.784l-.004-.01-.126-.278-.014-6.158c-.008-3.387-.003-6.189.011-6.227.022-.054 2.058-.066 10.814-.054l10.789.013v6.187z"/></symbol><symbol id="icon-camper-1" viewBox="0 0 32 32"><path d="M12.106 4.85a1.5 1.5 0 0 0-.666.43 10.23 10.23 0 0 1-.53.498l-.316.276-9.288.053-.248.122c-.378.186-.715.513-.882.853l-.15.305v16.594l.15.227a.969.969 0 0 0 .426.355l.277.129 4.32.002.119.392c.484 1.594 2.334 2.5 3.954 1.937.889-.31 1.65-1.067 1.895-1.884l.114-.379c.017-.053 1.202-.066 5.696-.066h5.674l.033.204c.092.577.74 1.457 1.336 1.816.579.348.947.451 1.632.456.508.003.678-.018.986-.121a3.116 3.116 0 0 0 1.996-2.013l.006-.022.092-.294 1.193-.029c.714-.017 1.25-.053 1.334-.09.231-.1.536-.4.64-.628.089-.197.097-.407.098-2.64 0-2.579-.01-2.699-.266-3.229-.184-.378-.592-.786-.998-.998a16.902 16.902 0 0 0-1.222-.522l-.86-.334-1.027-2.353c-.565-1.294-1.084-2.452-1.154-2.574-.16-.276-.574-.667-.862-.814-.488-.249-.715-.271-2.714-.271h-1.882v-.694h7.07l.238-.12c.47-.238.704-.826.512-1.285-.118-.282-1.652-2.519-1.914-2.791a2.116 2.116 0 0 0-.528-.367l-.012-.005-.326-.151-6.907-.009c-3.798-.005-6.966.01-7.04.032zm13.948 1.061c.186.114 1.864 2.54 1.813 2.622-.021.034-1.347.053-3.766.053-2.458 0-3.769.019-3.836.055-.276.147-.264-.202-.264 7.702v7.336h-8.68l-.122-.378c-.395-1.23-1.655-2.133-2.97-2.128-1.294.005-2.546.914-2.91 2.113l-.119.392-4.186.001v-2.24h.8v-.96h-.8v-6.406c0-6.403 0-6.406.111-6.605a.976.976 0 0 1 .28-.3c.162-.098.362-.103 4.835-.129l4.666-.026.24-.143c.132-.078.444-.349.693-.6l.452-.457h6.801c6.498 0 6.809.005 6.962.098zM3.334 9.967a1.228 1.228 0 0 0-.609.584c-.106.208-.111.298-.111 1.994l.001 1.775.16.279c.118.206.234.322.44.44l.279.16h6.933l.279-.16a1.06 1.06 0 0 0 .44-.44l.16-.279.001-1.775c0-1.64-.007-1.791-.101-1.974a1.344 1.344 0 0 0-.611-.6l-.008-.003c-.2-.092-.429-.098-3.626-.098-3.203 0-3.426.006-3.626.098zm6.93.979c.07.1.082.344.082 1.588s-.013 1.487-.082 1.588l-.083.118H3.739l-.083-.118c-.07-.101-.082-.345-.082-1.588s.013-1.488.082-1.588l.083-.119h6.442l.083.119zm14.85.44c.165.092.344.245.42.36.13.198 1.932 4.267 1.932 4.365 0 .031-1.228.045-3.213.037l-3.214-.014-.014-2.47-.014-2.47 3.814.034.288.159zm4.007 6.108c1.135.439 1.198.47 1.43.699.358.353.406.514.426 1.447l.018.84h-.81v.96h.802l-.014 1.106-.014 1.107H28.74l-.132-.391a3.658 3.658 0 0 0-.317-.684l.009.017c-.254-.396-.774-.853-1.221-1.073-1.235-.608-2.63-.383-3.591.579-.401.402-.741.983-.803 1.374l-.033.205h-1.639v-6.56h7.142l.966.374zM9.12 22.354c.446.209.768.526.991.977.176.358.193.43.193.849 0 .398-.021.504-.161.802a2.103 2.103 0 0 1-1.571 1.206l-.012.002c-.629.11-1.342-.135-1.82-.626-.479-.493-.678-1.306-.478-1.944.19-.6.706-1.131 1.311-1.348.378-.136 1.169-.094 1.546.082zm17.468.017c.387.19.766.558.967.942.14.265.151.333.151.874 0 .566-.006.599-.181.92-.81 1.495-2.968 1.46-3.711-.06-.194-.397-.242-.99-.116-1.426.171-.589.666-1.107 1.272-1.331.442-.164 1.194-.126 1.618.082z"/></symbol><symbol id="icon-camper-2" viewBox="0 0 32 32"><path d="M12.106 4.85a1.5 1.5 0 0 0-.666.43 10.23 10.23 0 0 1-.53.498l-.316.276-9.288.053-.248.122c-.378.186-.715.513-.882.853l-.15.305v16.594l.15.227a.969.969 0 0 0 .426.355l.277.129 4.32.002.119.392c.484 1.594 2.334 2.5 3.954 1.937.889-.31 1.65-1.067 1.895-1.884l.114-.379c.017-.053 1.202-.066 5.696-.066h5.674l.033.204c.092.577.74 1.457 1.336 1.816.579.348.947.451 1.632.456.508.003.678-.018.986-.121a3.116 3.116 0 0 0 1.996-2.013l.006-.022.092-.294 1.193-.029c.714-.017 1.25-.053 1.334-.09.231-.1.536-.4.64-.628.089-.197.097-.407.098-2.64 0-2.579-.01-2.699-.266-3.229-.184-.378-.592-.786-.998-.998a16.902 16.902 0 0 0-1.222-.522l-.86-.334-1.027-2.353c-.565-1.294-1.084-2.452-1.154-2.574-.16-.276-.574-.667-.862-.814-.488-.249-.715-.271-2.714-.271h-1.882v-.694h7.07l.238-.12c.47-.238.704-.826.512-1.285-.118-.282-1.652-2.519-1.914-2.791a2.116 2.116 0 0 0-.528-.367l-.012-.005-.326-.151-6.907-.009c-3.798-.005-6.966.01-7.04.032zm13.948 1.061c.186.114 1.864 2.54 1.813 2.622-.021.034-1.347.053-3.766.053-2.458 0-3.769.019-3.836.055-.276.147-.264-.202-.264 7.702v7.336h-8.68l-.122-.378c-.395-1.23-1.655-2.133-2.97-2.128-1.294.005-2.546.914-2.91 2.113l-.119.392-4.186.001v-2.24h.8v-.96h-.8v-6.406c0-6.403 0-6.406.111-6.605a.976.976 0 0 1 .28-.3c.162-.098.362-.103 4.835-.129l4.666-.026.24-.143c.132-.078.444-.349.693-.6l.452-.457h6.801c6.498 0 6.809.005 6.962.098zM13.538 9.974c-.245.13-.511.448-.579.692-.032.116-.052 2.246-.052 5.583l-.001 5.395.138.165.138.164h4.944l.299-.258V10.693l-.114-.214a1.176 1.176 0 0 0-.529-.524l-.007-.003c-.148-.074-.426-.086-2.106-.084-1.808.002-1.949.01-2.131.106zm3.87.937c.018.046.032.814.032 1.706v1.622h-3.52v-1.671c0-.919.016-1.687.035-1.706s.798-.036 1.728-.036c1.494 0 1.696.01 1.725.085zm7.706.475c.165.092.344.245.42.36.13.198 1.932 4.267 1.932 4.365 0 .031-1.228.045-3.213.037l-3.214-.014-.014-2.47-.014-2.47 3.814.034.288.159zm-7.687 6.734.014 2.894H13.92v-5.815l3.494.028.014 2.894zm11.694-.626c1.135.439 1.198.47 1.43.699.358.353.406.514.426 1.447l.018.84h-.81v.96h.802l-.014 1.106-.014 1.107H28.74l-.132-.391a3.658 3.658 0 0 0-.317-.684l.009.017c-.254-.396-.774-.853-1.221-1.073-1.235-.608-2.63-.383-3.591.579-.401.402-.741.983-.803 1.374l-.033.205h-1.639v-6.56h7.142l.966.374zM9.12 22.354c.446.209.768.526.991.977.176.358.193.43.193.849 0 .398-.021.504-.161.802a2.103 2.103 0 0 1-1.571 1.206l-.012.002c-.629.11-1.342-.135-1.82-.626-.479-.493-.678-1.306-.478-1.944.19-.6.706-1.131 1.311-1.348.378-.136 1.169-.094 1.546.082zm17.468.017c.387.19.766.558.967.942.14.265.151.333.151.874 0 .566-.006.599-.181.92-.81 1.495-2.968 1.46-3.711-.06-.194-.397-.242-.99-.116-1.426.171-.589.666-1.107 1.272-1.331.442-.164 1.194-.126 1.618.082z"/></symbol><symbol id="icon-camper-3" viewBox="0 0 32 32"><path d="M12.106 4.85a1.5 1.5 0 0 0-.666.43 10.23 10.23 0 0 1-.53.498l-.316.276-9.288.053-.248.122c-.378.186-.715.513-.882.853l-.15.305v16.594l.15.227a.969.969 0 0 0 .426.355l.277.129 4.32.002.119.392c.484 1.594 2.334 2.5 3.954 1.937.889-.31 1.65-1.067 1.895-1.884l.114-.379c.017-.053 1.202-.066 5.696-.066h5.674l.033.204c.092.577.74 1.457 1.336 1.816.579.348.947.451 1.632.456.508.003.678-.018.986-.121a3.116 3.116 0 0 0 1.996-2.013l.006-.022.092-.294 1.193-.029c.714-.017 1.25-.053 1.334-.09.231-.1.536-.4.64-.628.089-.197.097-.407.098-2.64 0-2.579-.01-2.699-.266-3.229-.184-.378-.592-.786-.998-.998a16.902 16.902 0 0 0-1.222-.522l-.86-.334-1.027-2.353c-.565-1.294-1.084-2.452-1.154-2.574-.16-.276-.574-.667-.862-.814-.488-.249-.715-.271-2.714-.271h-1.882v-.694h7.07l.238-.12c.47-.238.704-.826.512-1.285-.118-.282-1.652-2.519-1.914-2.791a2.116 2.116 0 0 0-.528-.367l-.012-.005-.326-.151-6.907-.009c-3.798-.005-6.966.01-7.04.032zm13.948 1.061c.186.114 1.864 2.54 1.813 2.622-.021.034-1.347.053-3.766.053-2.458 0-3.769.019-3.836.055-.276.147-.264-.202-.264 7.702v7.336h-8.68l-.122-.378c-.395-1.23-1.655-2.133-2.97-2.128-1.294.005-2.546.914-2.91 2.113l-.119.392-4.186.001v-2.24h.8v-.96h-.8v-6.406c0-6.403 0-6.406.111-6.605a.976.976 0 0 1 .28-.3c.162-.098.362-.103 4.835-.129l4.666-.026.24-.143c.132-.078.444-.349.693-.6l.452-.457h6.801c6.498 0 6.809.005 6.962.098zM3.334 9.967a1.228 1.228 0 0 0-.609.584c-.106.208-.111.298-.111 1.994l.001 1.775.16.279c.118.206.234.322.44.44l.279.16h6.933l.279-.16a1.06 1.06 0 0 0 .44-.44l.16-.279.001-1.775c0-1.64-.007-1.791-.101-1.974a1.344 1.344 0 0 0-.611-.6l-.008-.003c-.2-.092-.429-.098-3.626-.098-3.203 0-3.426.006-3.626.098zm10.204.007c-.245.13-.511.448-.579.692-.032.116-.052 2.246-.052 5.583l-.001 5.395.138.165.138.164h4.944l.299-.258V10.693l-.114-.214a1.176 1.176 0 0 0-.529-.524l-.007-.003c-.148-.074-.426-.086-2.106-.084-1.808.002-1.949.01-2.131.106zm-3.274.972c.07.1.082.344.082 1.588s-.013 1.487-.082 1.588l-.083.118H3.739l-.083-.118c-.07-.101-.082-.345-.082-1.588s.013-1.488.082-1.588l.083-.119h6.442l.083.119zm7.144-.035c.018.046.032.814.032 1.706v1.622h-3.52v-1.671c0-.919.016-1.687.035-1.706s.798-.036 1.728-.036c1.494 0 1.696.01 1.725.085zm7.706.475c.165.092.344.245.42.36.13.198 1.932 4.267 1.932 4.365 0 .031-1.228.045-3.213.037l-3.214-.014-.014-2.47-.014-2.47 3.814.034.288.159zm-7.687 6.734.014 2.894H13.92v-5.815l3.494.028.014 2.894zm11.694-.626c1.135.439 1.198.47 1.43.699.358.353.406.514.426 1.447l.018.84h-.81v.96h.802l-.014 1.106-.014 1.107H28.74l-.132-.391a3.658 3.658 0 0 0-.317-.684l.009.017c-.254-.396-.774-.853-1.221-1.073-1.235-.608-2.63-.383-3.591.579-.401.402-.741.983-.803 1.374l-.033.205h-1.639v-6.56h7.142l.966.374zM9.12 22.354c.446.209.768.526.991.977.176.358.193.43.193.849 0 .398-.021.504-.161.802a2.103 2.103 0 0 1-1.571 1.206l-.012.002c-.629.11-1.342-.135-1.82-.626-.479-.493-.678-1.306-.478-1.944.19-.6.706-1.131 1.311-1.348.378-.136 1.169-.094 1.546.082zm17.468.017c.387.19.766.558.967.942.14.265.151.333.151.874 0 .566-.006.599-.181.92-.81 1.495-2.968 1.46-3.711-.06-.194-.397-.242-.99-.116-1.426.171-.589.666-1.107 1.272-1.331.442-.164 1.194-.126 1.618.082z"/></symbol><symbol id="icon-CD" viewBox="0 0 32 32"><path d="M14.72 2.859c-1.77.213-3.034.578-4.507 1.298-1.446.709-2.344 1.354-3.523 2.533s-1.824 2.077-2.533 3.523a11.636 11.636 0 0 0-.939 2.504L3.2 12.8c-.296 1.189-.347 1.659-.347 3.2s.051 2.011.347 3.2c.23.928.496 1.645.957 2.587.709 1.446 1.354 2.344 2.533 3.523s2.077 1.824 3.523 2.533c.741.385 1.602.713 2.504.939l.083.018c1.189.296 1.659.347 3.2.347s2.011-.051 3.2-.347a13.673 13.673 0 0 0 4.913-2.387l-.033.024c.55-.414 1.942-1.806 2.357-2.357a13.477 13.477 0 0 0 2.602-6.001L29.05 18c.077-.464.098-.883.098-2 0-1.541-.051-2.011-.347-3.2a13.673 13.673 0 0 0-2.387-4.913l.024.033c-.414-.55-1.806-1.942-2.357-2.357-1.464-1.104-3.141-1.923-4.8-2.346-1.094-.28-1.621-.342-3.04-.362a27.312 27.312 0 0 0-1.562.004l.042-.001zm2.827 2.456c3.373.474 6.371 2.582 7.994 5.626a10.746 10.746 0 0 1 1.25 5.063c0 .996-.134 1.961-.384 2.877l.018-.076c-.906 3.31-3.277 5.979-6.419 7.222a10.749 10.749 0 0 1-4.018.765c-.926 0-1.824-.115-2.683-.331l.075.016c-3.141-.81-5.681-2.913-7.06-5.694l-.028-.063a10.107 10.107 0 0 1-1.076-4.573l.001-.155V16l-.001-.105c0-2.203.679-4.247 1.838-5.935l-.023.036c1.96-2.907 5.241-4.793 8.961-4.793.549 0 1.088.041 1.615.12l-.059-.007zm-2.398 2.207a8.53 8.53 0 0 0-6.873 4.884l-.022.052c-.454.99-.646 1.758-.744 2.966l-.064.784.157.302c.095.188.226.345.386.466l.003.002c.214.155.264.168.67.168.4 0 .461-.014.666-.157.374-.259.493-.525.541-1.221.115-1.637.666-2.918 1.726-4.029 1.074-1.122 2.478-1.752 4.174-1.872.696-.048.962-.166 1.221-.541.142-.205.157-.266.157-.661s-.014-.458-.157-.662c-.235-.339-.547-.499-1.01-.515l-.14-.001c-.244 0-.485.012-.722.036l.03-.002zm.069 4.02c-1.781.339-3.126 1.579-3.598 3.31-.163.603-.165 1.685-.002 2.294a4.683 4.683 0 0 0 3.202 3.227l.033.008c.605.162 1.69.162 2.294 0a4.693 4.693 0 0 0 2.893-2.353l.012-.026c.338-.674.443-1.152.443-2.003 0-.566-.024-.811-.114-1.147-.414-1.547-1.71-2.84-3.235-3.23-.55-.139-1.427-.176-1.93-.08zm1.336 2.405c.744.194 1.373.859 1.531 1.621a2.207 2.207 0 0 1-1.132 2.339l-.012.006a2.133 2.133 0 0 1-2.71-.743l-.005-.008c-1.075-1.619.438-3.707 2.328-3.214z"/></symbol><symbol id="icon-airConditioner" viewBox="0 0 32 32"><path d="M2.587.038a4.684 4.684 0 0 0-1.061.469l.021-.012A3.822 3.822 0 0 0 .19 2.134l-.009.025-.154.373-.014 6.504c-.013 5.838-.006 6.534.07 6.8.315 1.09 1.269 2.04 2.397 2.386.307.094.854.098 13.52.098s13.213-.003 13.52-.098c1.128-.346 2.082-1.296 2.397-2.386.077-.266.083-.962.07-6.8l-.014-6.504-.154-.373a3.646 3.646 0 0 0-1.955-1.97L29.84.18l-.373-.154L16.08.018C8.717.015 2.645.023 2.587.037zm26.551 2.469c.109.074.262.227.344.341l.146.21v12.17l-.131.186a1.053 1.053 0 0 1-.502.426l-.007.002c-.192.091-.341.102-1.427.104l-1.213.002-.002-1.8c0-1.84-.032-2.261-.214-2.779-.352-1.002-1.307-1.869-2.398-2.176-.328-.094-.726-.099-7.733-.099-6.982 0-7.405.006-7.728.098a3.615 3.615 0 0 0-2.494 2.429l-.007.025c-.066.221-.086.672-.104 2.288l-.022 2.014-1.208-.002c-1.058-.002-1.237-.014-1.424-.099-.28-.128-.547-.408-.613-.643-.034-.12-.053-2.376-.053-6.098 0-4.856.013-5.939.072-6.082.133-.259.336-.466.585-.6l.007-.004c.133-.058 2.442-.069 13.046-.059l12.883.011.197.134zm-5.959 9.039c.169.053.314.14.434.253.326.339.334.389.334 2.36v1.789H8.053l.002-1.8c.002-1.992.01-2.05.358-2.378.328-.307.029-.296 7.565-.299 5.96-.003 6.973.008 7.202.075zM8.792 21.714c-.16.059-.298.142-.418.245l.002-.002c-.405.346-.4.322-.429 2.203l-.027 1.68-.146.312c-.352.75-1.03 1.208-1.794 1.208-.685 0-1.182.28-1.37.773a1.173 1.173 0 0 0 .555 1.48l.007.003c.29.154.304.155.934.125.718-.034 1.099-.122 1.67-.384a4.412 4.412 0 0 0 2.514-3.415l.002-.022c.035-.27.053-1.045.042-1.92-.018-1.579-.026-1.632-.33-1.965-.264-.293-.81-.437-1.214-.322zm6.827.011a1.314 1.314 0 0 0-.626.499l-.003.005-.138.198-.014 4.376-.013 4.376.123.237c.077.147.222.304.381.411.234.158.291.173.67.173s.437-.014.67-.173a1.21 1.21 0 0 0 .376-.404l.126-.239v-4.318c0-3.898-.008-4.334-.088-4.501a1.426 1.426 0 0 0-.556-.58l-.007-.004a1.37 1.37 0 0 0-.912-.053l.01-.002zm6.864.008a1.203 1.203 0 0 0-.774.812l-.002.008c-.088.315-.067 3.005.026 3.542a4.376 4.376 0 0 0 2.463 3.25l.027.011c.571.262.952.35 1.67.384.63.03.645.029.934-.125.394-.208.6-.514.63-.934.058-.805-.504-1.322-1.438-1.322-.387 0-.805-.138-1.106-.363a1.995 1.995 0 0 1-.683-.832l-.005-.013-.146-.312-.027-1.68c-.029-1.882-.024-1.858-.427-2.203a1.133 1.133 0 0 0-1.15-.222l.008-.003z"/></symbol><symbol id="icon-cross" viewBox="0 0 32 32"><path d="M7.468 6.599c-.329.116-.757.554-.872.891a1.58 1.58 0 0 0 0 1.031l-.003-.011c.079.239.415.592 3.693 3.877L13.892 16l-3.606 3.613c-3.278 3.285-3.614 3.638-3.693 3.877-.191.581-.064 1.126.364 1.553.427.428.972.555 1.553.364.239-.079.592-.415 3.877-3.693L16 18.108l3.613 3.606c3.285 3.278 3.638 3.614 3.877 3.693.581.191 1.126.064 1.553-.364.428-.427.555-.972.364-1.553-.079-.239-.415-.592-3.693-3.877L18.108 16l3.606-3.613c3.278-3.285 3.614-3.638 3.693-3.877.191-.581.064-1.126-.364-1.553-.427-.428-.972-.555-1.553-.364-.239.079-.592.415-3.877 3.693L16 13.892l-3.613-3.606C9.102 7.008 8.749 6.672 8.51 6.593a1.7 1.7 0 0 0-1.054.009l.012-.003z"/></symbol><symbol id="icon-freezer" viewBox="0 0 32 32"><path d="M7.973 2.027c-1.04.208-1.907 1-2.28 2.08l-.12.346-.014 10.32c-.01 6.69.003 10.512.038 10.862.029.299.102.669.16.822.234.613.818 1.291 1.358 1.574.266.139.288.165.312.371.062.558.522 1.166 1.093 1.446.306.15.314.15 1.52.168 1.376.019 1.592-.018 2.038-.333a1.96 1.96 0 0 0 .728-.946l.115-.312h6.17l.035.146c.122.504.584 1.053 1.086 1.29.291.136.304.138 1.627.138s1.336-.002 1.627-.138a1.99 1.99 0 0 0 1.094-1.381c.058-.282.072-.299.376-.477.638-.371 1.162-1.043 1.39-1.792.094-.306.099-.782.099-10.986 0-8.862-.013-10.717-.074-10.96-.264-1.059-1.251-2.022-2.29-2.235-.334-.069-15.746-.074-16.091-.005zm15.998 2.207c.125.104.226.232.299.376l.003.007c.096.218.099.398.086 3.846l-.013 3.618H7.652V4.713l.147-.221c.093-.132.208-.242.342-.325l.005-.003c.197-.104.309-.106 7.91-.094l7.71.011.203.154zM9.893 5.594a.988.988 0 0 0-.527.545l-.002.007c-.07.168-.083.534-.083 2.422 0 2.166.003 2.232.114 2.461a.98.98 0 0 0 .876.545l.04-.001h-.002.027c.156 0 .305-.028.442-.08l-.009.003c.246-.151.434-.377.533-.646l.003-.009c.074-.27.075-4.344 0-4.613-.162-.584-.85-.893-1.411-.635zm14.454 14.329v5.765l-.144.216c-.097.138-.223.25-.37.327l-.006.003-.234.114h-7.586c-6.253 0-7.614-.013-7.757-.072a1.066 1.066 0 0 1-.564-.642l-.002-.008c-.064-.258-.086-11.394-.022-11.458.019-.019 3.782-.029 8.36-.021l8.325.013v5.763zm-14.291-5.517a1.03 1.03 0 0 0-.671.541l-.003.006c-.093.203-.101.386-.101 2.459 0 2.059.008 2.258.099 2.456.342.754 1.382.808 1.826.094l.126-.203v-4.64l-.141-.24a1.036 1.036 0 0 0-1.143-.472l.007-.002z"/></symbol><symbol id="icon-gas" viewBox="0 0 32 32"><path d="M18.667 1.731c-1.842.542-3.922 1.938-5.317 3.57a11.605 11.605 0 0 0-2.826 7.128l-.001.024c-.061 1.574.17 2.874.837 4.693.138.376.118.6-.075.851-.269.355-.787.459-1.226.246-.253-.123-.646-.594-1.042-1.243-1.126-1.854-1.318-4.354-.49-6.384.09-.218.155-.405.146-.413-.045-.046-.875.733-1.277 1.195-1.965 2.269-2.917 5.39-2.493 8.173.254 1.67 1.013 3.603 1.85 4.714a11.4 11.4 0 0 0 6.109 4.1l.079.018c.941.242 1.701.339 2.925.379 4.854.157 8.718-1.858 10.453-5.45.334-.691.616-1.55.754-2.293.147-.787.134-2.307-.024-3.048-.254-1.192-.621-2.005-1.466-3.262-.79-1.176-1.501-1.856-3.195-3.056-1.221-.864-1.584-1.155-2.106-1.686-1.997-2.024-2.565-5.304-1.37-7.904.099-.218.176-.413.168-.434-.008-.019-.195.018-.414.082zM17.058 14.04c.278.504.67 1.059 1.029 1.451.238.261 1.598 1.458 2.051 1.805.222.171.77.893.955 1.262.302.6.418 1.152.384 1.842a4.093 4.093 0 0 1-.503 1.863l.011-.021c-.55 1.066-1.394 1.744-2.669 2.154-1.112.355-2.109.285-3.245-.229-.464-.211-1.413-.862-1.416-.973 0-.019.069-.048.155-.066.334-.066 1.03-.373 1.402-.616a4.318 4.318 0 0 0 1.649-2.02l.01-.029c.157-.41.166-.478.165-1.13-.003-.622-.022-.766-.197-1.424-.32-1.205-.381-1.592-.376-2.416.002-.578.027-.837.112-1.146.12-.44.21-.694.246-.694.013 0 .118.174.237.387z"/></symbol><symbol id="icon-heart" viewBox="0 0 32 32"><path d="M8.72 2.509a8.173 8.173 0 0 0-3.298.927l.045-.022a8.335 8.335 0 0 0-2.263 1.599C1.797 6.405.944 8.08.635 10.053c-.087.549-.087 2.011 0 2.56a9.023 9.023 0 0 0 1.747 4.129l-.016-.022c.4.537 12.481 12.651 12.86 12.896.252.161.292.171.775.171s.523-.009.775-.171c.379-.245 12.46-12.359 12.86-12.896a8.983 8.983 0 0 0 1.725-4.056l.007-.051c.088-.549.087-2.071-.001-2.587-.511-2.996-2.221-5.324-4.885-6.655-1.211-.604-2.445-.88-3.92-.876-2.349.007-4.435.853-6.12 2.484l-.44.425-.44-.425A8.757 8.757 0 0 0 8.691 2.51l.032-.002zm2.16 3.222c1.207.335 1.821.733 3.173 2.057.557.545 1.109 1.051 1.227 1.121.187.115.277.131.72.131s.533-.016.72-.129c.117-.072.669-.577 1.227-1.124 1.356-1.331 1.961-1.72 3.2-2.064.491-.136.609-.148 1.467-.147.987 0 1.175.031 2 .324 1.345.479 2.535 1.555 3.176 2.873.811 1.665.811 3.455 0 5.12-.143.293-.385.701-.539.907s-2.748 2.845-5.765 5.867l-5.485 5.493-5.485-5.493c-3.017-3.021-5.612-5.661-5.765-5.867a6.633 6.633 0 0 1-.521-.867l-.018-.039c-.381-.746-.605-1.627-.605-2.56s.224-1.814.62-2.592l-.015.032c.756-1.552 2.135-2.652 3.869-3.087.5-.125.588-.132 1.467-.113.693.015.908.04 1.333.157z"/></symbol><symbol id="icon-hob" viewBox="0 0 32 32"><path d="M3.226 5.589a2.637 2.637 0 0 0-1.5 1.322l-.007.015-.198.402v18.677l.2.405c.264.534.67.941 1.203 1.203l.405.2h25.344l.405-.2a2.594 2.594 0 0 0 1.203-1.203l.2-.405V7.328l-.2-.405a2.621 2.621 0 0 0-1.188-1.196l-.015-.007-.405-.2-12.589-.011c-11.837-.011-12.606-.006-12.858.08zM10.8 16.667v8.8l-3.395.013c-3.035.013-3.405.005-3.48-.07-.077-.075-.085-.925-.085-8.742 0-7.819.008-8.667.085-8.744.075-.075.445-.083 3.48-.07l3.395.014v8.8zm17.277-8.744c.075.077.083.942.083 8.744 0 7.808-.008 8.667-.083 8.742-.077.075-.81.083-7.48.07l-7.397-.013-.014-8.747c-.006-4.811-.002-8.776.013-8.813.019-.053 1.55-.067 7.41-.067 6.642 0 7.394.008 7.469.083zm-3.957 1.68a1.315 1.315 0 0 0-.376.307l-.002.002c-.173.221-7.861 11.117-8.082 11.453a1.14 1.14 0 0 0 .17 1.462l.001.001c.499.485 1.165.498 1.637.035.202-.198 7.938-11.115 8.245-11.637.098-.165.126-.291.126-.558l.001-.042c0-.395-.201-.743-.507-.946l-.004-.003c-.309-.213-.869-.248-1.21-.074zm-17.179.589c-.261.078-.68.52-.754.792-.04.149-.054.754-.043 1.814l.016 1.592.162.23c.088.126.264.302.39.39.206.146.272.162.621.162s.416-.016.621-.162c.126-.088.302-.264.392-.39l.162-.23v-3.448l-.162-.23c-.251-.355-.538-.53-.91-.555a1.705 1.705 0 0 0-.506.038l.012-.002zm-.213 6.638c-.488.246-.73.691-.691 1.275.017.43.251.801.595 1.01l.005.003c.235.146.306.162.696.162.392 0 .462-.016.696-.162.172-.109.313-.251.419-.417l.003-.005c.146-.235.162-.306.162-.696s-.016-.461-.162-.696c-.237-.386-.578-.578-1.059-.6-.326-.016-.418.002-.664.126zm0 4c-.488.246-.73.691-.691 1.275.017.43.251.801.595 1.01l.005.003c.235.146.306.162.696.162.392 0 .462-.016.696-.162.172-.109.313-.251.419-.417l.003-.005c.146-.235.162-.306.162-.696s-.016-.461-.162-.696c-.237-.386-.578-.578-1.059-.6-.326-.016-.418.002-.664.126z"/></symbol><symbol id="icon-kitchen" viewBox="0 0 32 32"><path d="M24.827 2.926c-.269.123-1.811 1.69-2.608 2.646-2.163 2.6-3.542 5.23-4.184 7.974-.358 1.533-.491 2.762-.526 4.91-.032 1.904-.021 1.997.264 2.323.336.382.173.363 3.427.392l2.933.027v1.6l-.269.034a1.097 1.097 0 0 0-.727.348l-.001.001c-.307.323-.309.342-.309 2.829.002 2.107.01 2.299.101 2.496.069.137.152.255.252.357.293.274.466.309 1.499.309 1.046-.002 1.23-.045 1.518-.352.334-.357.31.645.309-12.832-.002-11.842-.005-12.29-.101-12.496a1.21 1.21 0 0 0-1.585-.563l.008-.003zM6.16 4.259a1.254 1.254 0 0 0-.612.678l-.003.009c-.042.139-.053.979-.038 2.762.022 2.827.018 2.789.398 3.691.574 1.362 1.934 2.557 3.322 2.92l.24.062.026 7.01c.03 7.731.002 7.138.355 7.474a1.228 1.228 0 0 0 1.638-.001l-.001.001c.354-.336.326.258.355-7.474l.027-7.01.24-.062c1.386-.363 2.746-1.558 3.32-2.92.381-.902.378-.864.4-3.691.014-1.782.002-2.622-.04-2.762a1.247 1.247 0 0 0-.606-.683l-.007-.003a1.275 1.275 0 0 0-1.328.211l.002-.001c-.336.32-.325.235-.358 2.918-.035 2.693-.038 2.72-.381 3.323-.254.45-.987 1.13-1.214 1.13-.037 0-.054-1.122-.054-3.389 0-2.942-.011-3.414-.083-3.586-.392-.941-1.787-.941-2.181 0-.072.171-.083.643-.083 3.586 0 2.267-.018 3.389-.054 3.389-.227 0-.958-.68-1.214-1.13-.342-.603-.346-.63-.379-3.323-.034-2.683-.024-2.598-.36-2.918a1.267 1.267 0 0 0-.832-.308c-.178 0-.347.036-.501.102l.008-.003zM24.136 18.76c-.021.051-.496.067-2.131.067-1.158 0-2.114-.019-2.125-.04-.042-.086.066-2.118.146-2.742.424-3.293 1.589-5.96 3.76-8.602l.347-.424.014 5.837c.008 3.211.002 5.867-.011 5.904z"/></symbol><symbol id="icon-microwave" viewBox="0 0 32 32"><path d="M1.878 4.642c-.762.11-1.506.776-1.757 1.571-.098.314-.098 19.261 0 19.574.259.821.989 1.458 1.805 1.574.49.072 27.706.067 28.154-.003a2.273 2.273 0 0 0 1.661-1.247l.006-.014.173-.365V6.266l-.173-.365a2.28 2.28 0 0 0-1.66-1.262l-.014-.002c-.413-.061-27.786-.058-28.195.003zM29.733 16v9.147H2.267l-.014-9.094c-.008-5.002-.002-9.123.011-9.16.021-.053 2.798-.064 13.747-.053l13.722.013V16zM6.357 9.23c-.837.166-1.573.955-1.718 1.842-.069.419-.069 9.437 0 9.856.15.915.888 1.683 1.773 1.846.19.035 2.613.05 6.928.04l6.634-.014.386-.181a2.273 2.273 0 0 0 1.299-1.757c.059-.464.059-9.261 0-9.725a2.283 2.283 0 0 0-1.285-1.751l-.014-.006-.386-.181-6.693-.008c-3.682-.005-6.797.013-6.923.038zm18.63 1.095a3.036 3.036 0 0 1-.193.045l-.036.006c-.171.037-.547.392-.634.595-.168.403-.05.994.258 1.28.253.237.469.282 1.325.282.877 0 1.072-.045 1.35-.309.232-.221.32-.432.325-.784l.001-.045c0-.395-.215-.739-.535-.921l-.005-.003c-.234-.136-.29-.146-.998-.158a9.301 9.301 0 0 0-.883.015l.026-.001zM19.467 16v4.587H6.827v-9.174h12.64V16zm5.183-.982c-.426.214-.57.462-.57.982 0 .526.146.773.581.986.286.141.31.144 1.146.126.85-.019.851-.019 1.083-.181a1.121 1.121 0 0 0 .004-1.86l-.004-.003-.232-.162-.862-.018c-.845-.016-.867-.013-1.146.128z"/></symbol><symbol id="icon-petrol" viewBox="0 0 32 32"><path d="M7.573 4.035a2.754 2.754 0 0 0-2.177 2.069l-.004.019c-.042.2-.059 3.403-.059 11.08V28h13.334v-9.973h1.966l.021 3.586c.021 3.978.005 3.787.389 4.563.662 1.341 2.262 2.086 3.704 1.725.682-.171 1.078-.395 1.579-.888.354-.347.474-.51.648-.88.381-.805.358-.322.358-7.813 0-7.574.027-7.032-.382-7.867-.186-.376-.349-.552-2.88-3.093l-2.682-2.693-.707.706-.707.707 2.814 2.816-.288.147a3.364 3.364 0 0 0-1.659 1.893l-.007.023c-.299.925-.168 2.01.338 2.792.301.466.552.723.997 1.021.516.344 1.15.549 1.832.549.37 0 .726-.06 1.059-.172l-.023.007.299-.101-.029 9.984-.117.218c-.419.782-1.419.981-2.054.406a1.899 1.899 0 0 1-.322-.398l-.005-.008c-.115-.216-.117-.251-.144-3.685-.027-3.422-.029-3.47-.147-3.782-.296-.786-.83-1.318-1.638-1.63-.28-.109-.438-.128-1.267-.149l-.946-.022v-4.81c0-4.144-.011-4.854-.082-5.128-.232-.904-.8-1.534-1.706-1.896l-.32-.128-4.427-.008a268.619 268.619 0 0 0-4.73.017l.17-.002zM16 10v3.333H8V6.667h8V10zm8.621.832a1.321 1.321 0 0 1 .662 1.471l.002-.009a1.322 1.322 0 0 1-1.286 1.027c-.364 0-.693-.147-.932-.386-.243-.238-.393-.57-.393-.937s.15-.697.392-.935a1.32 1.32 0 0 1 1.562-.228l-.007-.003zM16 20.667v4.666H8V16h8v4.667z"/></symbol><symbol id="icon-radio" viewBox="0 0 32 32"><path d="m13.947 4.365-5.76 2.712-.555.062c-1.904.214-3.109.709-4.101 1.68-1.027 1.008-1.504 2.197-1.76 4.402-.08.677-.091 1.394-.091 5.446s.011 4.768.091 5.445c.254 2.182.704 3.325 1.715 4.357 1.008 1.027 2.197 1.504 4.402 1.76.698.082 1.549.091 8.112.091s7.414-.01 8.112-.091c2.205-.256 3.394-.733 4.402-1.76 1.011-1.032 1.461-2.174 1.715-4.357.08-.677.091-1.392.091-5.445s-.011-4.77-.091-5.446c-.256-2.205-.733-3.394-1.76-4.402-1.018-.997-2.16-1.453-4.277-1.709-.576-.069-1.586-.088-5.758-.109-2.838-.013-5.04-.043-5.013-.069.026-.026 1.65-.802 3.61-1.725 1.96-.922 3.611-1.722 3.672-1.776.192-.196.31-.464.31-.76v-.006c0-.598-.419-1.013-1.024-1.011-.261 0-.718.205-6.042 2.71zm7.866 4.701c1.768.053 2.421.11 3.2.277 1.786.384 2.603 1.208 2.982 3.006.182.859.211 1.258.278 3.851a79.544 79.544 0 0 1 0 4.933 72.282 72.282 0 0 1-.125 3.095l.01-.2c-.12 1.011-.397 1.963-.725 2.493-.571.926-1.65 1.437-3.461 1.64-.912.102-3.675.155-7.973.155s-7.061-.053-7.973-.155c-2.579-.29-3.626-1.138-4.05-3.28-.154-.773-.186-1.253-.253-3.747a77.77 77.77 0 0 1 .004-5.058l-.003.126c.037-1.357.09-2.659.117-2.893.267-2.25.954-3.28 2.531-3.805.798-.266 1.744-.381 3.574-.434 1.981-.056 9.997-.059 11.866-.003zm-13.37 2.001c-1.253.272-2.445 1.474-2.712 2.733a5.204 5.204 0 0 0 .005 1.763l-.005-.031c.27 1.275 1.467 2.469 2.746 2.739.525.11 14.533.112 15.046.002 1.283-.277 2.475-1.466 2.746-2.741a5.184 5.184 0 0 0-.005-1.761l.005.031c-.27-1.275-1.466-2.467-2.746-2.739-.509-.107-14.584-.104-15.08.005zm14.864 2.112a1.623 1.623 0 0 1 .01 2.968l-.01.004c-.282.131-.334.138-1.28.139l-.987.002-.027-.67c-.024-.603-.04-.691-.16-.867-.158-.234-.579-.462-.853-.462s-.694.229-.853.462c-.12.176-.136.264-.16.867l-.027.67H8.987l-.294-.139c-1.054-.501-1.307-1.827-.501-2.626.228-.234.526-.399.861-.459l.01-.001c.134-.024 3.328-.038 7.098-.035l6.853.008.294.139zM9.36 19.69c-.355.067-.954.362-1.269.626-.763.635-1.104 1.362-1.104 2.352 0 .774.195 1.354.635 1.882 1.272 1.531 3.486 1.536 4.747.008.256-.309.506-.816.584-1.186.082-.382.075-1.152-.013-1.478-.414-1.549-1.973-2.509-3.581-2.203zm7.52 2.052a.982.982 0 0 0-.56.926v-.002c0 .416.187.73.544.912.189.096.371.101 3.803.101 3.43 0 3.613-.005 3.802-.101a.964.964 0 0 0 .545-.867l-.001-.048v.002l.001-.046c0-.38-.22-.708-.539-.865l-.006-.003c-.189-.096-.368-.101-3.813-.098-3.195.002-3.635.011-3.776.086zm-6.55.021a1 1 0 0 1 .616.903v.001c0 .282-.096.496-.314.702-.598.565-1.578.128-1.578-.702 0-.283.096-.496.314-.704a.924.924 0 0 1 .968-.198l-.006-.002z"/></symbol><symbol id="icon-route" viewBox="0 0 32 32"><path d="M6.053 1.365c-2.256.334-3.95 1.806-4.544 3.946-.131.474-.146.618-.146 1.357 0 .738.014.883.146 1.355a5.422 5.422 0 0 0 3.148 3.585l.036.013c.58.234 1.252.369 1.957.369a5.365 5.365 0 0 0 4.587-2.579l.013-.024c1.426-2.4.734-5.547-1.558-7.104a6.252 6.252 0 0 0-1.702-.779l-.045-.011c-.438-.106-1.533-.181-1.891-.128zm1.125 2.693c1.046.192 1.92 1.083 2.106 2.149.32 1.846-1.331 3.45-3.16 3.067a2.807 2.807 0 0 1-1.841-1.425l-.007-.015a2.597 2.597 0 0 1-.267-1.158c0-.736.301-1.402.787-1.88a2.571 2.571 0 0 1 2.399-.735l-.017-.003zm7.014 1.366c-.178.078-.33.181-.46.308a1.32 1.32 0 0 0 .327 2.113l.007.003.253.125L18.906 8c4.574.027 4.587.027 4.8.142.646.349.898 1.08.586 1.704-.074.149-.187.32-.254.382s-3.65 2.12-7.96 4.573C8.449 18.959 5.794 20.5 3.147 22.053l4.806-2.605c-1.754 1.152-2.234 3.445-1.118 5.339.098.168.371.499.606.736.352.357.517.477.933.682.928.454.637.43 5.139.45 4.515.019 4.334.034 4.754-.386a1.32 1.32 0 0 0-.327-2.113l-.007-.003-.253-.125-3.92-.027c-3.891-.027-3.922-.027-4.133-.142-.658-.355-.904-1.094-.574-1.726.089-.165.201-.306.333-.424l.001-.001c.102-.08 3.702-2.144 8-4.587 9.468-5.133 12.074-6.642 14.674-8.159l-6.701 3.61c1.781-1.205 2.258-3.454 1.139-5.357a4.96 4.96 0 0 0-.606-.736 2.825 2.825 0 0 0-.917-.674l-.018-.007c-.939-.461-.546-.43-5.838-.443-4.158-.011-4.72-.003-4.928.072zm10.384 14.63a5.799 5.799 0 0 0-2.31.922l.02-.013c-.513.373-.951.81-1.312 1.306l-.012.017c-.336.498-.677 1.253-.813 1.797-.094.382-.118.63-.118 1.25 0 .93.114 1.467.469 2.218.309.651.613 1.091 1.069 1.547a5.628 5.628 0 0 0 2.514 1.418c.678.17 1.822.17 2.501 0a5.632 5.632 0 0 0 2.515-1.419l-.001.001a5.628 5.628 0 0 0 1.418-2.514c.17-.678.17-1.822 0-2.501a5.632 5.632 0 0 0-1.419-2.515l.001.001a5.581 5.581 0 0 0-2.447-1.401l-.039-.009c-.515-.126-1.566-.181-2.035-.106zm1.301 2.672A2.725 2.725 0 0 1 28 25.33v.003C28 26.773 26.773 28 25.333 28c-1.438 0-2.666-1.227-2.666-2.667 0-1.197.875-2.307 2.045-2.59.35-.085.806-.091 1.165-.016z"/></symbol><symbol id="icon-shower" viewBox="0 0 32 32"><path d="M5.2 4.345c-.029.01-.117.033-.196.05-.186.041-.452.268-.561.478-.112.215-.113.705-.002.914.047.088.722.794 1.499 1.57l1.414 1.41-.175.243c-.658.915-1.149 2.153-1.315 3.314-.084.592-.037 2.066.083 2.608.213.958.619 1.921 1.122 2.666l.236.349-.74.746c-.407.411-.771.807-.808.88-.088.173-.088.683.001.854.1.193.273.372.45.464.173.09.562.114.805.051.116-.03 2.045-1.924 6.977-6.852 3.749-3.745 6.855-6.882 6.902-6.97.109-.206.11-.699.002-.907a1.14 1.14 0 0 0-.461-.452l-.006-.003c-.171-.089-.681-.089-.854-.001-.073.037-.469.401-.88.808l-.746.74-.349-.235c-.727-.492-1.747-.922-2.665-1.123-.545-.12-2.02-.167-2.609-.083-1.161.166-2.399.657-3.314 1.315l-.243.175-1.41-1.414c-.776-.777-1.47-1.445-1.544-1.484-.14-.074-.523-.143-.613-.111zm9.117 3.521c.233.041.593.13.8.198.412.133 1.319.577 1.346.659.009.028-1.724 1.79-3.852 3.917-3.7 3.697-3.873 3.862-3.951 3.76-.123-.163-.475-.919-.601-1.294-.313-.93-.35-2.137-.096-3.112.735-2.817 3.528-4.632 6.354-4.128zm6.883 4.479c-.029.01-.117.033-.196.05-.186.041-.452.268-.561.478-.111.213-.113.704-.003.914.166.318.551.56.893.56s.728-.242.894-.56c.101-.194.11-.697.015-.881a1.13 1.13 0 0 0-.424-.448l-.005-.003c-.141-.073-.524-.142-.613-.11zm5.333 1.333a1.71 1.71 0 0 1-.181.048l-.015.003c-.185.04-.452.267-.561.477-.111.214-.112.705-.003.914.166.318.552.56.894.56s.727-.242.893-.56c.102-.194.11-.697.016-.88a1.14 1.14 0 0 0-.424-.449l-.005-.003c-.142-.073-.525-.141-.614-.11zM17.2 16.345c-.029.01-.117.033-.196.05-.186.041-.452.268-.561.478-.111.213-.113.704-.003.914.166.318.551.56.893.56s.728-.242.894-.56c.101-.194.11-.697.015-.881a1.13 1.13 0 0 0-.424-.448l-.005-.003c-.141-.073-.524-.142-.613-.11zm5.333 1.333a1.71 1.71 0 0 1-.181.048l-.015.003c-.185.04-.452.267-.561.477-.111.214-.112.705-.003.914.166.318.552.56.894.56s.727-.242.893-.56c.102-.194.11-.697.016-.88a1.14 1.14 0 0 0-.424-.449l-.005-.003c-.142-.073-.525-.141-.614-.11zM13.2 20.345c-.029.01-.117.033-.196.05-.186.041-.452.268-.561.478-.111.213-.113.704-.003.914.166.318.551.56.893.56s.728-.242.894-.56c.101-.194.11-.697.015-.881a1.13 1.13 0 0 0-.424-.448l-.005-.003c-.141-.073-.524-.142-.613-.11zm5.333 1.333a1.71 1.71 0 0 1-.181.048l-.015.003c-.185.04-.452.267-.561.477-.111.214-.112.705-.003.914.166.318.552.56.894.56s.727-.242.893-.56c.102-.194.11-.697.016-.88a1.14 1.14 0 0 0-.424-.449l-.005-.003c-.142-.073-.525-.141-.614-.11zm-4 4a1.71 1.71 0 0 1-.181.048l-.015.003c-.185.04-.452.267-.561.477-.111.214-.112.705-.003.914.166.318.552.56.894.56s.727-.242.893-.56c.102-.194.11-.697.016-.88a1.14 1.14 0 0 0-.424-.449l-.005-.003c-.142-.073-.525-.141-.614-.11z"/></symbol><symbol id="icon-star" viewBox="0 0 32 32"><path d="M14.72 7.556a66.597 66.597 0 0 1-1.67 3.097l.214-.405c-.321.447-.72.815-1.18 1.092l-.018.01c-.464.246-.874.338-3.64.81a68.442 68.442 0 0 0-3.159.562l.521-.088c-.088.036.186.34 1.92 2.122 1.288 1.322 2.09 2.188 2.202 2.378.31.518.45 1.008.474 1.64.016.48-.036.94-.374 3.266-.214 1.488-.372 2.706-.346 2.706.024 0 1.19-.562 2.59-1.248 1.466-.72 2.692-1.288 2.892-1.342.458-.12 1.25-.12 1.708 0 .2.054 1.426.622 2.892 1.342 1.4.686 2.566 1.248 2.59 1.248.026 0-.132-1.218-.346-2.706-.338-2.326-.39-2.786-.374-3.266.024-.632.164-1.122.474-1.64.112-.19.91-1.052 2.2-2.378 1.728-1.778 2.01-2.088 1.92-2.122-.379-.094-1.273-.259-2.172-.41l-.464-.064c-2.766-.472-3.176-.564-3.64-.81-.4-.214-.94-.71-1.198-1.102-.286-.466-.77-1.347-1.238-2.238l-.218-.454a65.726 65.726 0 0 0-1.493-2.791l.213.409c-.014 0-.59 1.072-1.28 2.382z"/></symbol><symbol id="icon-toilet" viewBox="0 0 32 32"><path d="M7.333 4.078c-1.216.267-2.277 1.197-3.134 2.749-.629 1.136-1.147 2.931-1.408 4.886-.115.864-.133 3.491-.029 4.339.19 1.554.546 3.035 1.005 4.176.741 1.845 1.901 3.154 3.189 3.597.382.131.506.147 1.072.144.579-.003.68-.019 1.072-.166.506-.19.939-.458 1.306-.8l.262-.245.002 2.074c.002 1.594.019 2.122.074 2.275a1.33 1.33 0 0 0 1.134.876h.005c.288.027.442-.016 2.214-.603l1.904-.632 1.885.626c1.037.344 1.962.626 2.056.626.093 0 1.045-.146 2.114-.325l1.946-.325 1.982.331c1.414.235 2.051.322 2.222.298a1.347 1.347 0 0 0 1.068-.941l.002-.009c.048-.174.059-1.974.043-7.482-.018-6.402-.03-7.326-.107-7.867-.219-1.522-.518-2.741-.928-3.787-.456-1.163-.971-1.979-1.718-2.725-.437-.434-.59-.549-1.019-.762-.877-.432-.234-.405-9.573-.402-6.674.003-8.382.018-8.64.074zm.997 2.701c.798.406 1.618 2.029 2.016 3.989.72 3.55.136 7.862-1.33 9.821-.546.728-1.013.893-1.515.531-.914-.658-1.714-2.63-2.04-5.04-.133-.97-.133-3.19 0-4.16.349-2.57 1.229-4.629 2.197-5.139.267-.141.402-.141.672-.002zm16 0c.792.403 1.618 2.03 2.014 3.968.293 1.427.286 1.283.309 8.04.019 6.022.016 6.28-.077 6.278-.053 0-.589-.083-1.189-.186a13.891 13.891 0 0 0-1.297-.182l-.063-.005c-.147 0-1.085.134-2.085.299l-1.816.302-1.947-.648c-1.277-.424-2.026-.646-2.176-.646-.178 0-1.875.514-2.6.786-.05.018-.069-1.395-.085-6.234-.018-5.528-.03-6.333-.11-6.893-.264-1.842-.658-3.27-1.23-4.459.131.314.053.152-.026-.01l-.21-.482c-.01-.022 2.77-.04 6.176-.04 6.182 0 6.194 0 6.411.112zM7.515 11.533c-.28.216-.538.67-.698 1.238-.176.622-.176 1.838 0 2.453.55 1.918 1.814 1.918 2.365 0 .176-.614.176-1.83 0-2.453C8.926 11.869 8.5 11.36 8 11.36c-.21 0-.301.032-.485.173z"/></symbol><symbol id="icon-TV" viewBox="0 0 32 32"><path d="M9.542 1.241c-.28.189-.422.439-.422.744 0 .144.027.314.059.379s1.093 1.152 2.356 2.419l2.298 2.304-6.553.038-.51.139a4.865 4.865 0 0 0-2.291 1.355l-.002.002a4.81 4.81 0 0 0-1.208 2.115l-.008.034-.141.51v5.68c0 5.339.006 5.705.099 6.101.414 1.767 1.658 3.092 3.421 3.642l.48.15h17.76l.48-.15c1.953-.609 3.263-2.174 3.492-4.17.043-.378.056-2.096.042-5.893-.019-5.338-.02-5.362-.138-5.808-.133-.503-.444-1.202-.707-1.588-.639-.936-1.686-1.673-2.819-1.98l-.51-.139-6.553-.038 2.298-2.304c1.263-1.267 2.324-2.355 2.356-2.419s.059-.235.059-.379v-.003a.862.862 0 0 0-.862-.862h-.003c-.144 0-.314.027-.379.059-.064.032-1.358 1.298-2.876 2.813L16 6.746l-2.76-2.754c-1.518-1.515-2.812-2.781-2.876-2.813-.205-.104-.622-.072-.822.062zm15.199 7.748c1.07.252 2.018 1.2 2.27 2.27.122.515.122 11.015.001 11.49-.144.565-.383.978-.821 1.417a2.996 2.996 0 0 1-1.346.824l-.021.005c-.302.094-.722.098-8.824.098s-8.522-.004-8.824-.098c-1.094-.337-1.916-1.182-2.188-2.246-.121-.475-.121-10.975.001-11.49.25-1.064 1.19-2.012 2.245-2.268.485-.117 17.01-.119 17.507-.002zM11.573 29.218a.966.966 0 0 0-.458.627l-.001.006c-.077.411.254.934.634 1.002.095.017 2.068.024 4.385.016l4.214-.016.179-.128c.201-.143.378-.483.378-.725s-.177-.582-.378-.725l-.179-.128-4.294-.014c-4.102-.014-4.301-.01-4.48.085z"/></symbol><symbol id="icon-water" viewBox="0 0 32 32"><path d="M15.592 2.346a2.258 2.258 0 0 0-.902.467l.003-.003a22.27 22.27 0 0 0-.885 1.03c-2.493 3.027-4.523 6.075-5.933 8.907-1.043 2.096-1.59 3.658-1.936 5.52-.078.429-.098.792-.096 1.866.002 1.469.072 2.034.394 3.182.986 3.509 3.587 5.896 7.222 6.63.93.187 1.483.24 2.541.24.514 0 1.149-.024 1.413-.054 4.965-.565 8.182-3.81 8.726-8.8.078-.723.034-2.432-.082-3.064-.33-1.819-.896-3.435-1.933-5.52-1.413-2.84-3.442-5.883-5.939-8.914-.319-.398-.627-.75-.949-1.089l.007.007c-.405-.341-1.125-.517-1.651-.406zm.827 3.104c3.179 3.902 5.666 7.997 6.712 11.058.413 1.205.595 2.133.64 3.234.078 1.973-.408 3.819-1.355 5.152a7.215 7.215 0 0 1-2.169 1.93l-.035.018c-1.739.96-4.522 1.229-6.746.651-1.867-.486-3.349-1.594-4.245-3.174-.83-1.464-1.181-3.531-.928-5.461.344-2.624 1.99-6.096 4.797-10.11.902-1.293 2.818-3.781 2.909-3.779.014 0 .203.218.419.482zm4.543 14.001c-.437.229-.59.478-.654 1.064-.086.779-.146 1.016-.373 1.469a2.997 2.997 0 0 1-.594.815l-.001.001c-.626.632-1.214.901-2.16.99-.674.064-.944.195-1.181.568a1.13 1.13 0 0 0-.198.642c0 .295.112.564.297.766l-.001-.001c.267.31.533.419 1.03.421 2.922.008 5.506-2.547 5.555-5.493.008-.424-.01-.541-.104-.72a1.178 1.178 0 0 0-.997-.651h-.003a.854.854 0 0 0-.619.132l.003-.002z"/></symbol><symbol id="icon-AC" viewBox="0 0 32 32"><path d="M14.408 3.282c-2.717.477-4.776 2.51-5.317 5.25-.05.248-.078.576-.066.73.056.675.781 1.066 1.414.76.336-.163.475-.411.634-1.122.229-1.034.584-1.718 1.227-2.371.859-.874 2.003-1.333 3.272-1.318h.043c.696 0 1.352.173 1.926.478l-.022-.011c1.715.835 2.726 2.768 2.406 4.602-.306 1.754-1.445 3.018-3.218 3.574l-.469.147-15.581.053-.216.144a.983.983 0 0 0 .1 1.689l.005.003.237.115 15.562-.03.626-.17c2.683-.726 4.573-2.922 4.845-5.63a6.187 6.187 0 0 0-.63-3.357l.016.036a6.532 6.532 0 0 0-4.476-3.515l-.043-.008c-.552-.12-1.722-.144-2.277-.046zm11.965 8.809c-2.078.282-3.77 1.787-4.243 3.776-.141.594-.16 1.323-.04 1.546a1.03 1.03 0 0 0 1.369.445l-.006.003c.352-.171.496-.427.555-.992.088-.827.299-1.322.794-1.85.554-.592 1.181-.899 1.971-.968 1.394-.12 2.768.848 3.117 2.197.394 1.526-.478 3.046-2.05 3.573-.282.094-.85.101-13.733.126-12.611.024-13.451.032-13.61.118-.643.352-.656 1.269-.024 1.698l.194.13 10.186.027c7.27.019 10.234.045 10.347.086.685.253 1.237.714 1.51 1.258.75 1.496-.178 3.264-1.853 3.523-1.314.203-2.542-.661-2.846-2.003-.098-.432-.288-.704-.592-.842-.653-.298-1.419.166-1.419.859 0 .546.328 1.442.758 2.07.576.842 1.568 1.522 2.629 1.802.568.15 1.723.138 2.293-.026 2.749-.784 4.101-3.738 2.851-6.23l-.245-.49 1.736-.021c1.669-.021 1.758-.027 2.254-.16a5.033 5.033 0 0 0 3.536-3.403l.009-.035c.13-.426.144-.547.144-1.322 0-.778-.014-.896-.147-1.334a5.023 5.023 0 0 0-3.933-3.516l-.03-.004a5.972 5.972 0 0 0-1.509-.039l.025-.002z"/></symbol><symbol id="icon-map-pin" viewBox="0 0 32 32"><path d="m15.184.171-.672.072C12.141.494 9.68 1.518 7.746 3.059a16.359 16.359 0 0 0-2.005 2.004l-.02.025A13.047 13.047 0 0 0 2.834 13.3c0 1.147.147 2.26.424 3.321l-.02-.091c.714 2.827 2.312 5.667 4.866 8.646.702.819 2.59 2.722 3.507 3.533a47.995 47.995 0 0 0 2.665 2.188l.119.087c1.558 1.168 1.654 1.17 3.205.006a44.793 44.793 0 0 0 4.192-3.591l-.011.011c3.728-3.638 6.083-7.31 6.99-10.904 1.005-3.979.094-8.152-2.49-11.418-.464-.586-1.44-1.563-2.026-2.029a13.36 13.36 0 0 0-6.52-2.792l-.07-.008c-.517-.069-2.134-.126-2.48-.088zm2.403 2.474c1.781.25 3.488.973 5.011 2.122.552.416 1.629 1.51 2.061 2.091a10.66 10.66 0 0 1 2.145 6.438c0 .894-.109 1.763-.315 2.594l.015-.074c-.554 2.317-1.878 4.771-3.898 7.224-1.571 1.907-4.085 4.294-6.21 5.898l-.397.299-.397-.299c-2.136-1.611-4.638-3.989-6.232-5.922a25.2 25.2 0 0 1-2.233-3.194l-.065-.119c-1.286-2.294-1.874-4.304-1.874-6.408 0-1.224.163-2.227.55-3.39A10.417 10.417 0 0 1 8.359 5.71l.002-.002c.907-.906 1.648-1.453 2.69-1.984 2.05-1.05 4.214-1.406 6.534-1.08zm-2.44 5.587a5.183 5.183 0 0 0-2.697 1.346l.002-.002a4.835 4.835 0 0 0-1.018 1.333l-.013.027c-.894 1.731-.786 3.672.298 5.31 1.024 1.549 2.957 2.453 4.797 2.242 1.574-.179 2.936-.992 3.763-2.242 1.085-1.642 1.192-3.563.294-5.312-.879-1.661-2.597-2.773-4.574-2.773-.301 0-.597.026-.884.075l.031-.004zm1.723 2.422c.731.226 1.45.894 1.746 1.626.142.352.234.96.194 1.301a2.711 2.711 0 0 1-.836 1.735l-.001.001c-.579.581-1.165.826-1.973.826l-.079.001a2.586 2.586 0 0 1-1.813-.739 2.596 2.596 0 0 1-.761-1.135l-.005-.018a2.637 2.637 0 0 1-.125-1.337l-.002.015a2.837 2.837 0 0 1 2.275-2.368l.018-.003a3.72 3.72 0 0 1 1.387.101l-.026-.006z"/></symbol></defs></svg>